<svg width="56" height="56" viewBox="0 0 56 56" fill="none" xmlns="http://www.w3.org/2000/svg">
<g clip-path="url(#clip0_12_5454)">
<circle cx="28" cy="28" r="24" fill="white"/>
<circle cx="28" cy="28" r="26" stroke="black" stroke-opacity="0.2" stroke-width="4"/>
<g clip-path="url(#clip1_12_5454)">
<path d="M38.241 23H38V22.75C38 21.233 36.766 20 35.25 20H18.75C17.234 20 16 21.233 16 22.75V32.25C16 33.767 17.234 35 18.75 35H35.25C36.766 35 38 33.767 38 32.25V32H38.241C39.206 32 39.991 31.215 39.991 30.25V24.75C39.991 23.785 39.206 23 38.241 23ZM29.917 26.77L26.421 32.269C26.328 32.416 26.167 32.5 26 32.5C25.943 32.5 25.886 32.49 25.831 32.471C25.611 32.391 25.475 32.17 25.504 31.938L25.934 28.5L24.496 28.498C24.308 28.498 24.137 28.393 24.052 28.227C23.967 28.06 23.981 27.86 24.09 27.707L27.666 22.708C27.801 22.52 28.05 22.45 28.264 22.537C28.479 22.626 28.604 22.851 28.567 23.08L28.088 26L29.496 26.002C29.679 26.002 29.846 26.102 29.934 26.262C30.021 26.421 30.015 26.616 29.917 26.77Z" fill="#222222"/>
</g>
</g>
<defs>
<clipPath id="clip0_12_5454">
<rect width="56" height="56" fill="white"/>
</clipPath>
<clipPath id="clip1_12_5454">
<rect width="24" height="24" fill="white" transform="translate(16 16)"/>
</clipPath>
</defs>
</svg>
