<svg width="23" height="22" viewBox="0 0 23 22" fill="none" xmlns="http://www.w3.org/2000/svg">
<path d="M6.09333 21H16.5733C19.3333 21 20.4333 19.31 20.5633 17.25L21.0833 8.99C21.2233 6.83 19.5033 5 17.3333 5C16.7233 5 16.1633 4.65 15.8833 4.11L15.1633 2.66C14.7033 1.75 13.5033 1 12.4833 1H10.1933C9.16333 1 7.96333 1.75 7.50333 2.66L6.78333 4.11C6.50333 4.65 5.94333 5 5.33333 5C3.16333 5 1.44333 6.83 1.58333 8.99L2.10333 17.25C2.22333 19.31 3.33333 21 6.09333 21Z" stroke="#222222" stroke-width="2" stroke-linecap="round" stroke-linejoin="round"/>
<path d="M9.83333 7H12.8333" stroke="#222222" stroke-width="2" stroke-linecap="round" stroke-linejoin="round"/>
<path d="M11.3333 17C13.1233 17 14.5833 15.54 14.5833 13.75C14.5833 11.96 13.1233 10.5 11.3333 10.5C9.54333 10.5 8.08333 11.96 8.08333 13.75C8.08333 15.54 9.54333 17 11.3333 17Z" stroke="#222222" stroke-width="2" stroke-linecap="round" stroke-linejoin="round"/>
</svg>
