<svg width="25" height="24" viewBox="0 0 25 24" fill="none" xmlns="http://www.w3.org/2000/svg">
<path d="M7.0933 22H17.5733C20.3333 22 21.4333 20.31 21.5633 18.25L22.0833 9.99C22.2233 7.83 20.5033 6 18.3333 6C17.7233 6 17.1633 5.65 16.8833 5.11L16.1633 3.66C15.7033 2.75 14.5033 2 13.4833 2H11.1933C10.1633 2 8.9633 2.75 8.5033 3.66L7.7833 5.11C7.5033 5.65 6.9433 6 6.3333 6C4.1633 6 2.4433 7.83 2.5833 9.99L3.1033 18.25C3.2233 20.31 4.3333 22 7.0933 22Z" stroke="white" stroke-width="2" stroke-linecap="round" stroke-linejoin="round"/>
<path d="M10.8333 8H13.8333" stroke="white" stroke-width="2" stroke-linecap="round" stroke-linejoin="round"/>
<path d="M12.3333 18C14.1233 18 15.5833 16.54 15.5833 14.75C15.5833 12.96 14.1233 11.5 12.3333 11.5C10.5433 11.5 9.08331 12.96 9.08331 14.75C9.08331 16.54 10.5433 18 12.3333 18Z" stroke="white" stroke-width="2" stroke-linecap="round" stroke-linejoin="round"/>
</svg>
