<svg width="20" height="20" viewBox="0 0 20 20" fill="none" xmlns="http://www.w3.org/2000/svg">
<path fill-rule="evenodd" clip-rule="evenodd" d="M0.292893 1.70711C-0.097631 1.31658 -0.097631 0.683417 0.292893 0.292893C0.683419 -0.0976311 1.31658 -0.0976311 1.70711 0.292893L8.03523 6.62102C8.42576 7.01154 8.42576 7.64471 8.03523 8.03523C7.64471 8.42576 7.01154 8.42576 6.62102 8.03523L0.292893 1.70711ZM9.29214 9.29364C9.29239 9.29339 9.29264 9.29314 9.29289 9.29289C9.29314 9.29264 9.29339 9.29239 9.29364 9.29214L18.2929 0.292893C18.6834 -0.0976311 19.3166 -0.0976311 19.7071 0.292893C20.0976 0.683417 20.0976 1.31658 19.7071 1.70711L11.4142 10L19.7071 18.2929C20.0976 18.6834 20.0976 19.3166 19.7071 19.7071C19.3166 20.0976 18.6834 20.0976 18.2929 19.7071L10 11.4142L1.70711 19.7071C1.31658 20.0976 0.68342 20.0976 0.292896 19.7071C-0.0976287 19.3166 -0.0976287 18.6834 0.292896 18.2929L9.29214 9.29364Z" fill="white"/>
</svg>
