<svg width="56" height="56" viewBox="0 0 56 56" fill="none" xmlns="http://www.w3.org/2000/svg">
<g clip-path="url(#clip0_12_5462)">
<circle cx="28" cy="28" r="24" fill="#A531B5"/>
<circle cx="28" cy="28" r="26" stroke="#A531B5" stroke-opacity="0.2" stroke-width="4"/>
<g clip-path="url(#clip1_12_5462)">
<path d="M25.0001 16.7502C25.0001 18.4047 26.3456 19.7502 28.0001 19.7502C29.653 19.7502 31 18.4047 31 16.7502H25.0001Z" fill="white"/>
<path d="M39.6218 19.8492L34.3719 16.8492C34.2594 16.7847 34.1304 16.7502 33.9999 16.7502H32.4999C32.4999 19.2312 30.4809 21.2501 28 21.2501C25.5191 21.2501 23.5001 19.2312 23.5001 16.7502H22.0001C21.8696 16.7502 21.7421 16.7847 21.6281 16.8492L16.3783 19.8492C16.0783 20.0202 15.9343 20.3742 16.0288 20.7057L17.5287 25.9555C17.6397 26.3455 18.0447 26.575 18.4317 26.4775L20.5002 25.9615V38.4998C20.5002 38.9138 20.8362 39.2498 21.2501 39.2498H34.7499C35.1638 39.2498 35.4998 38.9138 35.4998 38.4998V25.9615L37.5683 26.4775C37.9553 26.5765 38.3588 26.3455 38.4713 25.9555L39.9712 20.7057C40.0657 20.3742 39.9217 20.0202 39.6218 19.8492Z" fill="white"/>
</g>
</g>
<defs>
<clipPath id="clip0_12_5462">
<rect width="56" height="56" fill="white"/>
</clipPath>
<clipPath id="clip1_12_5462">
<rect width="24" height="24" fill="white" transform="translate(16 16)"/>
</clipPath>
</defs>
</svg>
