<svg width="32" height="32" viewBox="0 0 56 56" fill="none" xmlns="http://www.w3.org/2000/svg">
<g clip-path="url(#clip0_12_5447)">
<circle cx="28" cy="28" r="24" fill="white"/>
<circle cx="28" cy="28" r="26" stroke="black" stroke-opacity="0.2" stroke-width="4"/>
<path fill-rule="evenodd" clip-rule="evenodd" d="M31.7763 19.7902C31.9891 19.0609 31.5967 18.4342 31.0931 18.1618C30.5927 17.891 29.8687 17.9044 29.3686 18.4508L20.3755 28.2757C19.5192 29.2113 20.2363 30.6307 21.4231 30.6307H25.2839C25.5506 30.6307 25.7426 30.8867 25.6679 31.1427L24.1899 36.2097C23.9771 36.939 24.3695 37.5657 24.873 37.8381C25.3735 38.1088 26.0974 38.0955 26.5976 37.549L35.5906 27.7242C36.447 26.7886 35.7299 25.3692 34.5431 25.3692H30.6823C30.4156 25.3692 30.2236 25.1132 30.2983 24.8572L31.7763 19.7902Z" fill="#222222"/>
</g>
<defs>
<clipPath id="clip0_12_5447">
<rect width="56" height="56" fill="white"/>
</clipPath>
</defs>
</svg>
