<svg width="32" height="32" viewBox="0 0 56 56" fill="none" xmlns="http://www.w3.org/2000/svg">
<g clip-path="url(#clip0_12_5471)">
<circle cx="28" cy="28" r="24" fill="#2B6EF3"/>
<circle cx="28" cy="28" r="26" stroke="#2B6EF3" stroke-opacity="0.2" stroke-width="4"/>
<path d="M20.285 25.2185C19.2665 26.7072 18.6396 28.5093 18.6396 30.3897V37.7546C18.6396 38.6165 19.4232 39.4 20.3634 39.4H26.3963C27.3366 39.4 28.1201 38.6948 28.1201 37.7546V30.3897C28.1201 28.5876 27.5716 26.7855 26.4747 25.2185C24.2809 22.0845 24.986 19.2639 24.8293 18.167H21.852C21.7737 19.2639 22.4005 22.1629 20.285 25.2185Z" fill="white"/>
<path d="M25.2212 18.9505C25.4562 18.9505 25.6129 18.7938 25.6129 18.5587V16.9917C25.6129 16.7567 25.4562 16.6 25.2212 16.6H21.4604C21.2253 16.6 21.0686 16.7567 21.0686 16.9917V18.5587C21.0686 18.7938 21.2253 18.9505 21.4604 18.9505H25.2212Z" fill="white"/>
<path d="M37.3603 30.0773C37.3603 28.92 37.1031 28.0841 36.7174 27.2483H31.6381C31.2523 28.0841 30.9951 28.9842 30.9951 30.0773C30.9951 32.5205 32.1524 34.4493 33.5669 34.8994V38.1141H32.924C32.2167 38.1141 31.6381 38.6928 31.6381 39.4H36.7816C36.7816 38.6928 36.203 38.1141 35.4958 38.1141H34.8528V34.9637C36.203 34.5136 37.3603 32.4562 37.3603 30.0773Z" fill="white"/>
</g>
<defs>
<clipPath id="clip0_12_5471">
<rect width="56" height="56" fill="white"/>
</clipPath>
</defs>
</svg>
