<svg width="56" height="56" viewBox="0 0 56 56" fill="none" xmlns="http://www.w3.org/2000/svg">
<g clip-path="url(#clip0_12_5458)">
<circle cx="28" cy="28" r="24" fill="#27A64D"/>
<circle cx="28" cy="28" r="26" stroke="#27A64D" stroke-opacity="0.2" stroke-width="4"/>
<path d="M23.2 30.2C24 29.2 24.8 28.4 25.6 27.8C27.1 26.5 28.4 26 28.4 26C28.4 26 27.7 27.1 26.6 28.7C26.4 29.1 26.1 29.5 25.8 30C25.5 30.4 25.3 30.9 25 31.4C24.7 31.9 24.5 32.4 24.2 32.9C24 33.4 23.6 34 23.4 34.5C23.2 35 22.9 35.6 22.7 36.1C22.6 36.3 22.5 36.6 22.4 36.8C25.7 38.7 30.1 38.3 32.8 35.4C37.8 30 33.4 27.7 38 18.2C38 18.2 27.8 16.1 20.5 23.3C17.2 26.6 17.2 31.9 20.5 35.3C20.7 34.7 20.9 34.1 21.2 33.5C21.7 32.3 22.4 31.1 23.2 30.2Z" fill="white"/>
</g>
<defs>
<clipPath id="clip0_12_5458">
<rect width="56" height="56" fill="white"/>
</clipPath>
</defs>
</svg>
