<svg width="25" height="24" viewBox="0 0 25 24" fill="none" xmlns="http://www.w3.org/2000/svg">
<path fill-rule="evenodd" clip-rule="evenodd" d="M5.66669 4C5.1144 4 4.66669 4.44772 4.66669 5V15C4.66669 15.5523 5.1144 16 5.66669 16H6.66669C7.77126 16 8.66669 16.8954 8.66669 18V19.2949L13.736 16.5126C14.1784 16.2698 14.6748 16.1425 15.1795 16.1425H17.6667C18.219 16.1425 18.6667 16.5902 18.6667 17.1425C18.6667 17.6948 18.219 18.1425 17.6667 18.1425H15.1795C15.0113 18.1425 14.8458 18.1849 14.6983 18.2659L8.46145 21.689C7.6652 22.1448 6.66669 21.5707 6.66669 20.6468V18H5.66669C4.00983 18 2.66669 16.6569 2.66669 15V5C2.66669 3.34315 4.00983 2 5.66669 2H19.6667C21.3235 2 22.6667 3.34315 22.6667 5V5.01662V5.03326V5.04993V5.06663V5.08336V5.10011V5.11689V5.1337V5.15054V5.1674V5.18429V5.2012V5.21815V5.23511V5.25211V5.26913V5.28617V5.30324V5.32034V5.33746V5.3546V5.37177V5.38897V5.40619V5.42343V5.4407V5.45799V5.4753V5.49264V5.51001V5.52739V5.5448V5.56223V5.57969V5.59716V5.61466V5.63218V5.64973V5.66729V5.68488V5.70249V5.72012V5.73777V5.75545V5.77314V5.79085V5.80859V5.82635V5.84412V5.86192V5.87973V5.89757V5.91543V5.9333V5.9512V5.96911V5.98704V6.00499V6.02296V6.04095V6.05896V6.07698V6.09503V6.11309V6.13116V6.14926V6.16737V6.1855V6.20365V6.22181V6.24V6.25819V6.27641V6.29463V6.31288V6.33114V6.34942V6.36771V6.38602V6.40434V6.42268V6.44103V6.4594V6.47778V6.49618V6.51459V6.53301V6.55145V6.56991V6.58837V6.60685V6.62534V6.64385V6.66236V6.6809V6.69944V6.71799V6.73656V6.75514V6.77373V6.79234V6.81095V6.82958V6.84821V6.86686V6.88552V6.90419V6.92287V6.94156V6.96026V6.97898V6.9977V7.01643V7.03517V7.05392V7.07267V7.09144V7.11022V7.129V7.1478V7.1666V7.18541V7.20423V7.22306V7.24189V7.26073V7.27958V7.29844V7.3173V7.33617V7.35505V7.37393V7.39282V7.41172V7.43062V7.44953V7.46844V7.48736V7.50629V7.52522V7.54415V7.56309V7.58204V7.60099V7.61994V7.6389V7.65786V7.67683V7.6958V7.71477V7.73375V7.75273V7.77171V7.79069V7.80968V7.82867V7.84767V7.86666V7.88566V7.90466V7.92367V7.94267V7.96167V7.98068V7.99969V8.01869V8.0377V8.05671V8.07572V8.09473V8.11374V8.13275V8.15176V8.17077V8.18978V8.20879V8.2278V8.24681V8.26581V8.28482V8.30382V8.32282V8.34182V8.36081V8.37981V8.3988V8.41779V8.43678V8.45576V8.47474V8.49372V8.5127V8.53167V8.55063V8.5696V8.58856V8.60751V8.62646V8.64541V8.66435V8.68329V8.70222V8.72115V8.74007V8.75898V8.77789V8.7968V8.8157V8.83459V8.85347V8.87235V8.89122V8.91009V8.92895V8.9478V8.96664V8.98548V9.00431V9.02313V9.04194V9.06075V9.07955V9.09833V9.11711V9.13588V9.15465V9.1734V9.19214V9.21088V9.2296V9.24831V9.26702V9.28571V9.3044V9.32307V9.34173V9.36039V9.37903V9.39766V9.41628V9.43488V9.45348V9.47206V9.49063V9.50919V9.52774V9.54627V9.5648V9.58331V9.6018V9.62029V9.63876V9.65721V9.67566V9.69408V9.7125V9.7309V9.74929V9.76766V9.78602V9.80436V9.82269V9.841V9.8593V9.87758V9.89585V9.9141V9.93233V9.95055V9.96876V9.98694V10.0051V10.0233V10.0414V10.0595V10.0776V10.0957V10.1138V10.1318V10.1499V10.1679V10.1859V10.2038V10.2218V10.2397V10.2577V10.2756V10.2934V10.3113V10.3291V10.347V10.3648V10.3825V10.4003V10.4181V10.4358V10.4535V10.4712V10.4888V10.5064V10.5241V10.5417V10.5592V10.5768V10.5943V10.6118V10.6293V10.6468V10.6642V10.6816V10.699V10.7164V10.7337V10.7511V10.7684V10.7856V10.8029V10.8201V10.8373V10.8545V10.8716V10.8888V10.9059V10.923V10.94V10.957V10.974V10.991V11.008V11.0249V11.0418V11.0587V11.0755V11.0923V11.1091V11.1259V11.1426V11.1593V11.176V11.1927V11.2093V11.2259V11.2424V11.259V11.2755V11.292V11.3084V11.3249V11.3413V11.3576V11.374V11.3903V11.4065V11.4228V11.439V11.4552V11.4713V11.4875V11.5036V11.5196V11.5356V11.5516V11.5676V11.5835V11.5994V11.6153V11.6312V11.647V11.6627V11.6785V11.6942V11.7099V11.7255V11.7411V11.7567V11.7722V11.7877V11.8032V11.8186V11.834V11.8494V11.8647V11.88V11.8953V11.9105V11.9257V11.9409V11.956V11.9711V11.9862V12.0012V12.0161V12.0311V12.046V12.0609V12.0757V12.0905V12.1052V12.1199V12.1346V12.1493V12.1639V12.1784V12.193V12.2075V12.2219V12.2363V12.2507V12.265V12.2793V12.2936V12.3078V12.322V12.3361V12.3502V12.3642V12.3782V12.3922V12.4061V12.42V12.4339V12.4477V12.4615V12.4752V12.4889V12.5025V12.5161V12.5297V12.5432V12.5566V12.5701V12.5835V12.5968V12.6101V12.6233V12.6366V12.6497V12.6628V12.6759V12.689V12.7019V12.7149V12.7278V12.7406V12.7534V12.7662V12.7789V12.7916V12.8042V12.8168V12.8293V12.8418V12.8543V12.8667V12.879V12.8913V12.9036V12.9158V12.9279V12.94V12.9521V12.9641V12.9761V12.988V12.9999V13.0117V13.0235V13.0352V13.0469V13.0585V13.0701V13.0816V13.0931V13.1045V13.1159V13.1272V13.1385V13.1497V13.1609V13.172V13.1831V13.1941V13.2051V13.216V13.2268V13.2377V13.2484V13.2591V13.2698V13.2804V13.2909V13.3014V13.3119V13.3223V13.3326V13.3429V13.3531V13.3633V13.3734V13.3835V13.3935V13.4035V13.4134V13.4232V13.433V13.4427V13.4524V13.4621V13.4716V13.4811V13.4906V13.5C22.6667 14.0523 22.219 14.5 21.6667 14.5C21.1144 14.5 20.6667 14.0523 20.6667 13.5V13.4906V13.4811V13.4716V13.4621V13.4524V13.4427V13.433V13.4232V13.4134V13.4035V13.3935V13.3835V13.3734V13.3633V13.3531V13.3429V13.3326V13.3223V13.3119V13.3014V13.2909V13.2804V13.2698V13.2591V13.2484V13.2377V13.2268V13.216V13.2051V13.1941V13.1831V13.172V13.1609V13.1497V13.1385V13.1272V13.1159V13.1045V13.0931V13.0816V13.0701V13.0585V13.0469V13.0352V13.0235V13.0117V12.9999V12.988V12.9761V12.9641V12.9521V12.94V12.9279V12.9158V12.9036V12.8913V12.879V12.8667V12.8543V12.8418V12.8293V12.8168V12.8042V12.7916V12.7789V12.7662V12.7534V12.7406V12.7278V12.7149V12.7019V12.689V12.6759V12.6628V12.6497V12.6366V12.6233V12.6101V12.5968V12.5835V12.5701V12.5566V12.5432V12.5297V12.5161V12.5025V12.4889V12.4752V12.4615V12.4477V12.4339V12.42V12.4061V12.3922V12.3782V12.3642V12.3502V12.3361V12.322V12.3078V12.2936V12.2793V12.265V12.2507V12.2363V12.2219V12.2075V12.193V12.1784V12.1639V12.1493V12.1346V12.1199V12.1052V12.0905V12.0757V12.0609V12.046V12.0311V12.0161V12.0012V11.9862V11.9711V11.956V11.9409V11.9257V11.9105V11.8953V11.88V11.8647V11.8494V11.834V11.8186V11.8032V11.7877V11.7722V11.7567V11.7411V11.7255V11.7099V11.6942V11.6785V11.6627V11.647V11.6312V11.6153V11.5994V11.5835V11.5676V11.5516V11.5356V11.5196V11.5036V11.4875V11.4713V11.4552V11.439V11.4228V11.4065V11.3903V11.374V11.3576V11.3413V11.3249V11.3084V11.292V11.2755V11.259V11.2424V11.2259V11.2093V11.1927V11.176V11.1593V11.1426V11.1259V11.1091V11.0923V11.0755V11.0587V11.0418V11.0249V11.008V10.991V10.974V10.957V10.94V10.923V10.9059V10.8888V10.8716V10.8545V10.8373V10.8201V10.8029V10.7856V10.7684V10.7511V10.7337V10.7164V10.699V10.6816V10.6642V10.6468V10.6293V10.6118V10.5943V10.5768V10.5592V10.5417V10.5241V10.5064V10.4888V10.4712V10.4535V10.4358V10.4181V10.4003V10.3825V10.3648V10.347V10.3291V10.3113V10.2934V10.2756V10.2577V10.2397V10.2218V10.2038V10.1859V10.1679V10.1499V10.1318V10.1138V10.0957V10.0776V10.0595V10.0414V10.0233V10.0051V9.98694V9.96876V9.95055V9.93233V9.9141V9.89585V9.87758V9.8593V9.841V9.82269V9.80436V9.78602V9.76766V9.74929V9.7309V9.7125V9.69408V9.67566V9.65721V9.63876V9.62029V9.6018V9.58331V9.5648V9.54627V9.52774V9.50919V9.49063V9.47206V9.45348V9.43488V9.41628V9.39766V9.37903V9.36039V9.34173V9.32307V9.3044V9.28571V9.26702V9.24831V9.2296V9.21088V9.19214V9.1734V9.15465V9.13588V9.11711V9.09833V9.07955V9.06075V9.04194V9.02313V9.00431V8.98548V8.96664V8.9478V8.92895V8.91009V8.89122V8.87235V8.85347V8.83459V8.8157V8.7968V8.77789V8.75898V8.74007V8.72115V8.70222V8.68329V8.66435V8.64541V8.62646V8.60751V8.58856V8.5696V8.55063V8.53167V8.5127V8.49372V8.47474V8.45576V8.43678V8.41779V8.3988V8.37981V8.36081V8.34182V8.32282V8.30382V8.28482V8.26581V8.24681V8.2278V8.20879V8.18978V8.17077V8.15176V8.13275V8.11374V8.09473V8.07572V8.05671V8.0377V8.01869V7.99969V7.98068V7.96167V7.94267V7.92367V7.90466V7.88566V7.86666V7.84767V7.82867V7.80968V7.79069V7.77171V7.75273V7.73375V7.71477V7.6958V7.67683V7.65786V7.6389V7.61994V7.60099V7.58204V7.56309V7.54415V7.52522V7.50629V7.48736V7.46844V7.44953V7.43062V7.41172V7.39282V7.37393V7.35505V7.33617V7.3173V7.29844V7.27958V7.26073V7.24189V7.22306V7.20423V7.18541V7.1666V7.1478V7.129V7.11022V7.09144V7.07267V7.05392V7.03517V7.01643V6.9977V6.97898V6.96026V6.94156V6.92287V6.90419V6.88552V6.86686V6.84821V6.82958V6.81095V6.79234V6.77373V6.75514V6.73656V6.71799V6.69944V6.6809V6.66236V6.64385V6.62534V6.60685V6.58837V6.56991V6.55145V6.53301V6.51459V6.49618V6.47778V6.4594V6.44103V6.42268V6.40434V6.38602V6.36771V6.34942V6.33114V6.31288V6.29463V6.27641V6.25819V6.24V6.22181V6.20365V6.1855V6.16737V6.14926V6.13116V6.11309V6.09503V6.07698V6.05896V6.04095V6.02296V6.00499V5.98704V5.96911V5.9512V5.9333V5.91543V5.89757V5.87973V5.86192V5.84412V5.82635V5.80859V5.79085V5.77314V5.75545V5.73777V5.72012V5.70249V5.68488V5.66729V5.64973V5.63218V5.61466V5.59716V5.57969V5.56223V5.5448V5.52739V5.51001V5.49264V5.4753V5.45799V5.4407V5.42343V5.40619V5.38897V5.37177V5.3546V5.33746V5.32034V5.30324V5.28617V5.26913V5.25211V5.23511V5.21815V5.2012V5.18429V5.1674V5.15054V5.1337V5.11689V5.10011V5.08336V5.06663V5.04993V5.03326V5.01662V5C20.6667 4.44772 20.219 4 19.6667 4H5.66669ZM12.6667 7.27326C12.2653 7.27326 11.94 7.59861 11.94 7.99996C11.94 8.55224 11.4923 8.99996 10.94 8.99996C10.3877 8.99996 9.93999 8.55224 9.93999 7.99996C9.93999 6.49404 11.1608 5.27326 12.6667 5.27326C14.1726 5.27326 15.3934 6.49404 15.3934 7.99996C15.3934 8.95597 14.9006 9.79637 14.1598 10.2817C13.9652 10.4093 13.8211 10.5287 13.7331 10.6339C13.6863 10.6898 13.6711 10.7224 13.6667 10.7347V11C13.6667 11.5523 13.219 12 12.6667 12C12.1144 12 11.6667 11.5523 11.6667 11V10.7267C11.6667 10.1414 11.9259 9.67722 12.1989 9.35084C12.468 9.0291 12.7964 8.78399 13.0637 8.60884C13.2644 8.47737 13.3934 8.25347 13.3934 7.99996C13.3934 7.59861 13.068 7.27326 12.6667 7.27326ZM13.6652 10.7403C13.6651 10.7403 13.6652 10.7391 13.666 10.7366C13.6657 10.739 13.6653 10.7403 13.6652 10.7403ZM12.6667 14.5C13.219 14.5 13.6667 14.0523 13.6667 13.5C13.6667 12.9477 13.219 12.5 12.6667 12.5C12.1144 12.5 11.6667 12.9477 11.6667 13.5C11.6667 14.0523 12.1144 14.5 12.6667 14.5Z" fill="current"/>
</svg>
