<svg width="24" height="24" viewBox="0 0 24 24" fill="none" xmlns="http://www.w3.org/2000/svg">
<path fill-rule="evenodd" clip-rule="evenodd" d="M12 3C8.13401 3 5 6.13401 5 10C5 13.129 6.3393 15.6044 7.91728 17.4417C9.45541 19.2327 11.1866 20.3751 12 20.8557C12.5082 20.5554 13.3847 19.991 14.3497 19.1649C14.7693 18.8058 15.4006 18.8547 15.7597 19.2743C16.1188 19.6939 16.0698 20.3252 15.6503 20.6843C14.5287 21.6444 13.5124 22.2895 12.9408 22.6225C12.3629 22.9592 11.6518 22.9675 11.0636 22.6251C10.1781 22.1096 8.1832 20.821 6.40004 18.7448C4.61111 16.6618 3 13.7417 3 10C3 5.02944 7.02944 1 12 1C16.9706 1 21 5.02944 21 10C21 12.197 20.4434 14.1171 19.6174 15.751C19.3682 16.2439 18.7667 16.4414 18.2738 16.1923C17.7809 15.9431 17.5833 15.3415 17.8325 14.8487C18.5343 13.4605 19 11.8474 19 10C19 6.13401 15.866 3 12 3ZM14 8C14 9.10457 13.1046 10 12 10C10.8954 10 10 9.10457 10 8C10 6.89543 10.8954 6 12 6C13.1046 6 14 6.89543 14 8ZM17 19C17.5523 19 18 18.5523 18 18C18 17.4477 17.5523 17 17 17C16.4477 17 16 17.4477 16 18C16 18.5523 16.4477 19 17 19Z" fill="current"/>
</svg>
