<svg width="56" height="56" viewBox="0 0 56 56" fill="none" xmlns="http://www.w3.org/2000/svg">
<g clip-path="url(#clip0_12_5482)">
<circle cx="28" cy="28" r="24" fill="#F45959"/>
<circle cx="28" cy="28" r="26" stroke="#F45959" stroke-opacity="0.2" stroke-width="4"/>
<g clip-path="url(#clip1_12_5482)">
<path d="M36.7499 34.65C37.6499 33.6 38.3499 32.4 38.8999 31.15C40.2999 27.8 39.8999 24 37.8999 21C35.8999 18 32.6999 16.25 29.2499 16.25C28.5999 16.25 27.9499 16.3 27.2499 16.45H27.1499C26.9499 16.5 26.7999 16.75 26.7999 17C26.7999 17.25 27.0499 17.45 27.2999 17.45C29.3999 17.55 31.3499 18.4 32.7999 19.9C35.8999 23.1 35.9999 28.2 33.1499 31.55L31.2999 29.65C31.1499 29.5 30.9499 29.45 30.7499 29.55C30.5499 29.65 30.4499 29.8 30.4499 30V37.25C30.4499 37.55 30.6499 37.75 30.9499 37.75H37.9999C38.1999 37.75 38.3999 37.65 38.4499 37.45C38.5499 37.25 38.4999 37.05 38.3499 36.9L36.4999 35C36.5499 34.95 36.5999 34.85 36.6499 34.8L36.7499 34.65Z" fill="white"/>
<path d="M28.6999 38.55C26.5999 38.45 24.6499 37.6 23.1999 36.1C20.0999 32.9 19.9999 27.8 22.8499 24.45L24.6999 26.35C24.8499 26.5 25.0499 26.55 25.2499 26.45C25.4499 26.35 25.5499 26.2 25.5499 26V18.75C25.5499 18.6 25.4999 18.5 25.3999 18.4C25.2999 18.3 25.1999 18.25 25.0499 18.25H17.9999C17.7999 18.25 17.5999 18.35 17.4999 18.55C17.4499 18.75 17.4999 18.95 17.5999 19.1L19.4999 21C19.4499 21.05 19.3999 21.15 19.3499 21.2L19.2499 21.3C18.3499 22.35 17.6499 23.55 17.0999 24.8C15.6999 28.15 16.0999 31.95 18.0999 34.95C20.0999 37.95 23.2999 39.7 26.7499 39.7C27.3999 39.7 28.0499 39.65 28.6999 39.5H28.7999C29.0499 39.45 29.1999 39.2 29.1999 38.95C29.1999 38.75 28.9499 38.55 28.6999 38.55Z" fill="white"/>
</g>
</g>
<defs>
<clipPath id="clip0_12_5482">
<rect width="56" height="56" fill="white"/>
</clipPath>
<clipPath id="clip1_12_5482">
<rect width="24" height="24" fill="white" transform="translate(16 16)"/>
</clipPath>
</defs>
</svg>
