<svg width="32" height="32" viewBox="0 0 56 56" fill="none" xmlns="http://www.w3.org/2000/svg">
    <g clip-path="url(#clip0_12_5477)">
        <circle cx="28" cy="28" r="24" fill="#965927"/>
        <circle cx="28" cy="28" r="26" stroke="#965927" stroke-opacity="0.2" stroke-width="4"/>
        <g clip-path="url(#clip1_12_5477)">
            <path d="M37.0174 36.983V16.3622C37.0174 16.162 36.8553 16 36.6552 16H31.2043C31.4493 16.1639 31.6691 16.3398 31.8617 16.5273C32.4174 17.0686 32.7545 17.7144 32.8387 18.3979C32.8567 18.5124 32.8658 18.6274 32.8658 18.7411V37.3452H36.6552C36.8552 37.3452 37.0174 37.1831 37.0174 36.983Z"
                  fill="white"/>
            <path d="M25.2056 40H25.2115C30.3884 40 31.4037 37.8117 31.4037 37.3452V18.6006C31.4039 16.7722 28.271 16 25.3093 16C22.5951 16 19 16.8337 19 18.7409C19 18.7814 19.0059 37.1732 19.0059 37.1732C19.0059 38.2658 20.6891 39.9985 25.2056 40ZM25.2131 18.0473C26.4053 18.0473 27.3719 18.3621 27.3719 18.7504C27.3719 19.1388 26.4053 19.4536 25.2131 19.4536C24.0208 19.4536 23.0543 19.1388 23.0543 18.7504C23.0543 18.3621 24.0208 18.0473 25.2131 18.0473Z"
                  fill="white"/>
        </g>
    </g>
    <defs>
        <clipPath id="clip0_12_5477">
            <rect width="56" height="56" fill="white"/>
        </clipPath>
        <clipPath id="clip1_12_5477">
            <rect width="24" height="24" fill="white" transform="translate(16 16)"/>
        </clipPath>
    </defs>
</svg>
