<svg width="32" height="32" viewBox="0 0 56 56" fill="none" xmlns="http://www.w3.org/2000/svg">
<g clip-path="url(#clip0_12_5438)">
<circle cx="28" cy="28" r="24" fill="#46C330"/>
<circle cx="28" cy="28" r="26" stroke="#46C330" stroke-opacity="0.2" stroke-width="4"/>
<path d="M33.25 27.625C33.25 26.788 32.7865 26.065 32.1085 25.678C32.7565 25.513 33.25 24.949 33.25 24.25C33.25 24.0115 33.19 23.788 33.0865 23.5945C32.707 22.276 31.8535 21.178 30.718 20.5H25.282C24.145 21.178 23.293 22.276 22.912 23.5945C22.81 23.7895 22.75 24.013 22.75 24.25C22.75 24.9475 23.2435 25.5115 23.8915 25.6765C23.2135 26.065 22.75 26.788 22.75 27.625C22.75 28.4635 23.2135 29.185 23.893 29.5735C23.242 29.737 22.75 30.2995 22.75 31V38.5C22.75 39.328 23.422 40 24.25 40H31.75C32.578 40 33.25 39.328 33.25 38.5V31C33.25 30.298 32.758 29.7355 32.107 29.572C32.7865 29.185 33.25 28.4635 33.25 27.625Z" fill="white"/>
<path d="M30.25 16H25.75C25.336 16 25 16.336 25 16.75V18.25C25 18.664 25.336 19 25.75 19H30.25C30.664 19 31 18.664 31 18.25V16.75C31 16.336 30.664 16 30.25 16Z" fill="white"/>
</g>
<defs>
<clipPath id="clip0_12_5438">
<rect width="56" height="56" fill="white"/>
</clipPath>
</defs>
</svg>
