<svg width="56" height="74" viewBox="0 0 56 74" fill="none" xmlns="http://www.w3.org/2000/svg">
    <path d="M52 28C52 40.9782 40.1887 55.4328 33.138 62.9053C30.3146 65.8976 25.7092 65.8725 22.9072 62.8602C15.8619 55.2859 4 40.6544 4 28C4 14.7452 14.7452 4 28 4C41.2548 4 52 14.7452 52 28Z" fill="#3F4653"/>
    <path d="M34.5927 64.2779C38.1664 60.4903 42.9801 54.8998 46.9118 48.5729C50.8174 42.2879 54 35.0441 54 28C54 13.6406 42.3594 2 28 2C13.6406 2 2 13.6406 2 28C2 34.8902 5.20256 42.1011 9.11309 48.3911C13.0536 54.7293 17.8746 60.3863 21.4428 64.2223C25.0289 68.0777 30.9729 68.1142 34.5927 64.2779Z" stroke="#3F4653" stroke-opacity="0.2" stroke-width="4"/>
    <path d="M28 18C22.49 18 18 22.49 18 28C18 33.51 22.49 38 28 38C33.51 38 38 33.51 38 28C38 22.49 33.51 18 28 18ZM32 28.75H28.75V32C28.75 32.41 28.41 32.75 28 32.75C27.59 32.75 27.25 32.41 27.25 32V28.75H24C23.59 28.75 23.25 28.41 23.25 28C23.25 27.59 23.59 27.25 24 27.25H27.25V24C27.25 23.59 27.59 23.25 28 23.25C28.41 23.25 28.75 23.59 28.75 24V27.25H32C32.41 27.25 32.75 27.59 32.75 28C32.75 28.41 32.41 28.75 32 28.75Z" fill="white"/>
</svg>
