<svg width="24" height="24" viewBox="0 0 24 24" fill="none" xmlns="http://www.w3.org/2000/svg">
    <path fill-rule="evenodd" clip-rule="evenodd"
          d="M8.00019 8C8.00019 5.79086 9.79105 4 12.0002 4C14.2093 4 16.0002 5.79086 16.0002 8C16.0002 10.2091 14.2093 12 12.0002 12C9.79105 12 8.00019 10.2091 8.00019 8ZM12.0002 2C8.68648 2 6.00019 4.68629 6.00019 8C6.00019 11.3137 8.68648 14 12.0002 14C12.7046 14 13.3807 13.8786 14.0086 13.6556C14.3572 13.5318 14.7604 13.7101 15.0871 13.8834C16.7901 14.7868 18.0635 16.4183 18.4621 18.4105L19.0196 21.1962C19.128 21.7378 19.6549 22.0889 20.1964 21.9806C20.738 21.8722 21.0891 21.3453 20.9807 20.8038L20.4233 18.018C20.0115 15.9605 18.8839 14.199 17.3322 12.971C16.8148 12.5615 16.7106 11.7748 17.0649 11.2183C17.6571 10.2883 18.0002 9.18422 18.0002 8C18.0002 4.68629 15.3139 2 12.0002 2ZM6.41708 16.202C6.71087 15.7343 6.56992 15.1171 6.10226 14.8233C5.63461 14.5295 5.01733 14.6704 4.72354 15.1381C4.18128 16.0012 3.78646 16.972 3.57714 18.018L3.01964 20.8038C2.91126 21.3453 3.26241 21.8722 3.80396 21.9806C4.3455 22.0889 4.87237 21.7378 4.98075 21.1962L5.53825 18.4105C5.69911 17.6067 6.00189 16.8629 6.41708 16.202Z"
          fill="current"/>
</svg>
