<svg width="80" height="80" viewBox="0 0 80 80" fill="none" xmlns="http://www.w3.org/2000/svg">
    <path d="M58.1688 13.75H43.125V9.25C43.125 8.78587 42.9406 8.34075 42.6124 8.01256C42.2842 7.68437 41.8391 7.5 41.375 7.5H38.625C38.1609 7.5 37.7158 7.68437 37.3876 8.01256C37.0594 8.34075 36.875 8.78587 36.875 9.25V13.75H21.8313C18.6939 13.7517 15.6856 14.9987 13.4671 17.2171C11.2487 19.4356 10.0017 22.4439 10 25.5812V32.6312C10 40.3872 13.081 47.8254 18.5653 53.3097C24.0496 58.794 31.4878 61.875 39.2438 61.875H41.375C41.8391 61.875 42.2842 61.6906 42.6124 61.3624C42.9406 61.0342 43.125 60.5891 43.125 60.125V57.375C43.125 56.9109 42.9406 56.4658 42.6124 56.1376C42.2842 55.8094 41.8391 55.625 41.375 55.625H39.2438C33.1454 55.625 27.2969 53.2024 22.9847 48.8903C18.6726 44.5781 16.25 38.7296 16.25 32.6312V25.5812C16.25 24.101 16.838 22.6814 17.8847 21.6347C18.9314 20.588 20.351 20 21.8313 20H58.1688C59.649 20 61.0686 20.588 62.1153 21.6347C63.162 22.6814 63.75 24.101 63.75 25.5812V33.125C63.7461 34.8397 63.5362 36.5478 63.125 38.2125C63.016 38.6414 63.0742 39.0958 63.2877 39.4834C63.5013 39.871 63.8542 40.1629 64.275 40.3L66.9 41.1562C67.1267 41.2315 67.3665 41.2593 67.6045 41.2381C67.8425 41.2168 68.0735 41.1468 68.2833 41.0326C68.4931 40.9183 68.6772 40.7621 68.8241 40.5737C68.9711 40.3854 69.0777 40.1688 69.1375 39.9375C69.7059 37.7111 69.9956 35.4228 70 33.125V25.5812C69.9983 22.4439 68.7513 19.4356 66.5329 17.2171C64.3144 14.9987 61.3061 13.7517 58.1688 13.75Z" fill="#222222"/>
    <path d="M30 40C32.7614 40 35 37.7614 35 35C35 32.2386 32.7614 30 30 30C27.2386 30 25 32.2386 25 35C25 37.7614 27.2386 40 30 40Z" fill="#222222"/>
    <path d="M50 40C52.7614 40 55 37.7614 55 35C55 32.2386 52.7614 30 50 30C47.2386 30 45 32.2386 45 35C45 37.7614 47.2386 40 50 40Z" fill="#222222"/>
    <path d="M69.8313 58L75.4938 60.2312C75.6103 60.2773 75.7104 60.3574 75.7809 60.461C75.8513 60.5647 75.889 60.6871 75.889 60.8125C75.889 60.9378 75.8513 61.0603 75.7809 61.1639C75.7104 61.2676 75.6103 61.3477 75.4938 61.3937L69.8313 63.625C68.8289 64.0213 67.9185 64.6191 67.1563 65.3812C66.3941 66.1434 65.7963 67.0539 65.4 68.0562L63.1688 73.6812C63.1227 73.7978 63.0426 73.8978 62.939 73.9683C62.8353 74.0388 62.7129 74.0765 62.5875 74.0765C62.4622 74.0765 62.3397 74.0388 62.2361 73.9683C62.1324 73.8978 62.0523 73.7978 62.0063 73.6812L59.775 68.0562C59.3797 67.0533 58.7823 66.1424 58.02 65.3801C57.2576 64.6177 56.3467 64.0203 55.3438 63.625L49.7188 61.3937C49.6022 61.3477 49.5022 61.2676 49.4317 61.1639C49.3612 61.0603 49.3235 60.9378 49.3235 60.8125C49.3235 60.6871 49.3612 60.5647 49.4317 60.461C49.5022 60.3574 49.6022 60.2773 49.7188 60.2312L55.3438 58C56.3467 57.6046 57.2576 57.0072 58.02 56.2449C58.7823 55.4826 59.3797 54.5717 59.775 53.5687L62.0063 47.9437C62.0523 47.8272 62.1324 47.7271 62.2361 47.6566C62.3397 47.5862 62.4622 47.5485 62.5875 47.5485C62.7129 47.5485 62.8353 47.5862 62.939 47.6566C63.0426 47.7271 63.1227 47.8272 63.1688 47.9437L65.4 53.5687C65.7963 54.5711 66.3941 55.4815 67.1563 56.2437C67.9185 57.0059 68.8289 57.6037 69.8313 58Z" fill="#A531B5"/>
</svg>
